# xmcd CD database file
#
# Track frame offsets:
#	150
#	29670
#	50375
#	68274
#	77162
#	106299
#	124446
#	138978
#	147245
#	166732
#
# Disc length: 2671 seconds
#
# Revision: 0
# Processed by: cddbd v1.5.2PL0 Copyright (c) Steve Scherf et al.
# Submitted via: CDex 1.51
#
DISCID=850a6d0a
DTITLE=Ayelet Rose Gottlieb - Mayim Rabim
DYEAR=2006
DGENRE=Jazz
TTITLE0=Tapuah (apple)
TTITLE1=Haree'nee, Hashmee'eenee (show Me)
TTITLE2=Al Mishkavi (as I Lay)
TTITLE3=Min Ha'midbar (from the Desert)
TTITLE4=Libavtini (captivated My Heart)
TTITLE5=Pithi Li (open Up)
TTITLE6=Patahti (i Opened)
TTITLE7=Ana Halah (where Did He Go)
TTITLE8=Ma Yafit (how Beautiful)
TTITLE9=Mayim Rabim (great Waters)
EXTD=YEAR: 2006
EXTT0=
EXTT1=
EXTT2=
EXTT3=
EXTT4=
EXTT5=
EXTT6=
EXTT7=
EXTT8=
EXTT9=
PLAYORDER=
